<svg xmlns="http://www.w3.org/2000/svg" xmlns:xlink="http://www.w3.org/1999/xlink" viewBox="0 0 3075.6 587.75"><defs><clipPath id="a" transform="translate(-461.26 -183.66)"><rect x="440.29" y="157.14" width="3121.71" height="637.71" fill="none"/></clipPath><clipPath id="b" transform="translate(-461.26 -183.66)"><polygon points="619.76 627.24 762.32 769.78 762.32 484.69 619.76 627.24" fill="none"/></clipPath><linearGradient id="c" y1="1000" x2="1" y2="1000" gradientTransform="matrix(0, -285.09, -285.09, 0, 285320.45, 586.13)" gradientUnits="userSpaceOnUse"><stop offset="0" stop-color="#114d8a"/><stop offset="1" stop-color="#213264"/></linearGradient><clipPath id="d" transform="translate(-461.26 -183.66)"><polygon points="762.32 769.78 762.32 769.78 904.88 627.24 762.32 484.69 762.32 769.78" fill="none"/></clipPath><linearGradient id="e" x1="0" y1="1000" x2="1" y2="1000" gradientTransform="matrix(0, 285.09, 285.09, 0, -284718.33, 301.03)" xlink:href="#c"/><clipPath id="f" transform="translate(-461.26 -183.66)"><polygon points="477.2 484.69 619.76 627.24 619.76 342.15 477.2 484.69" fill="none"/></clipPath><linearGradient id="g" x1="0" y1="1000" x2="1" y2="1000" gradientTransform="matrix(0, 285.09, 285.09, 0, -285003.45, 158.49)" xlink:href="#c"/><clipPath id="h" transform="translate(-461.26 -183.66)"><polygon points="619.76 627.24 762.32 484.69 619.76 342.15 619.76 627.24" fill="none"/></clipPath><linearGradient id="i" x1="0" y1="1000" x2="1" y2="1000" gradientTransform="matrix(0, -285.09, -285.09, 0, 285320.45, 443.58)" xlink:href="#c"/><clipPath id="j" transform="translate(-461.26 -183.66)"><polygon points="904.88 342.15 1047.44 484.69 1047.44 199.6 904.88 342.15" fill="none"/></clipPath><linearGradient id="k" x1="0" y1="1000" x2="1" y2="1000" gradientTransform="matrix(0, -285.09, -285.09, 0, 285607.09, 301.03)" xlink:href="#c"/><clipPath id="l" transform="translate(-461.26 -183.66)"><polygon points="904.88 627.24 1047.44 484.69 904.88 342.15 904.88 627.24" fill="none"/></clipPath><linearGradient id="m" x1="0" y1="1000" x2="1" y2="1000" gradientTransform="matrix(0, -285.09, -285.09, 0, 285605.57, 443.58)" xlink:href="#c"/><clipPath id="n" transform="translate(-461.26 -183.66)"><polygon points="762.32 484.69 904.88 627.24 904.88 342.15 762.32 484.69" fill="none"/></clipPath><linearGradient id="o" x1="0" y1="1000" x2="1" y2="1000" gradientTransform="matrix(0, 285.09, 285.09, 0, -284718.33, 158.49)" xlink:href="#c"/><clipPath id="p" transform="translate(-461.26 -183.66)"><rect width="4000" height="1000" fill="none"/></clipPath></defs><title>Asset 2</title><g clip-path="url(#a)"><g clip-path="url(#b)"><rect x="158.5" y="301.04" width="142.56" height="285.09" fill="url(#c)"/></g><g clip-path="url(#d)"><rect x="301.06" y="301.03" width="142.56" height="285.09" fill="url(#e)"/></g><g clip-path="url(#f)"><rect x="15.94" y="158.49" width="142.56" height="285.09" fill="url(#g)"/></g><g clip-path="url(#h)"><rect x="158.5" y="158.49" width="142.56" height="285.09" fill="url(#i)"/></g><g clip-path="url(#j)"><rect x="443.62" y="15.94" width="142.56" height="285.09" fill="url(#k)"/></g><g clip-path="url(#l)"><rect x="443.62" y="158.49" width="142.56" height="285.09" fill="url(#m)"/></g><g clip-path="url(#n)"><rect x="301.06" y="158.49" width="142.56" height="285.09" fill="url(#o)"/></g><polygon points="0 0 142.56 142.54 0 285.09 0 0" fill="#c62128" fill-rule="evenodd"/><rect x="648.77" width="16.03" height="585.86" fill="#231f20"/><g clip-path="url(#p)"><path d="M1447.41,249h26.1V484.69h-46.89v-215h.12A20.69,20.69,0,0,1,1447.41,249m-78-.12c-12.82,0-19.56,6.07-23,17.69L1300.23,425l-60.1-176.2h-48l83.91,235.86h47.11l80-235.86ZM1497,484.69h46.9V327.24l93.78,157.45h46.9V248.83h-46.9V406.27l-93.78-157.44h0l-26.11.12a20.69,20.69,0,0,0-20.67,20.72H1497Z" transform="translate(-461.26 -183.66)" fill="#c62128"/><path d="M3114.81,290.22h70.34V484.69h46.9V290.22h70.33V248.83H3135.47a20.68,20.68,0,0,0-20.66,20.71v20.68M2928,446c-30.62,0-46.44-12.11-48.16-36.34h-46.44c1.38,49.8,32.68,75,94.6,75,59.16,0,90.12-22.2,92.88-66.95q2.05-43.41-37.16-56.53A521.38,521.38,0,0,0,2928,345.4c-30.59-6.84-49.28-18.09-48.81-32.55.56-17.51,16.82-25.82,41.58-26,20.3-.15,34.4,6.39,42.31,19.51,4.48,8.75,11.36,13.46,21.33,13.46h26.83c-2.75-47.44-31.3-70.83-86.34-71-57.79-.17-90.83,22.29-91.46,70.41-.4,30.28,26.13,52,71.85,63.5,16.89,4.27,32.68,8.42,46.44,12.45,14.45,4,21.33,11.44,21.33,22.55.34,18.84-14.45,28.26-45.06,28.26M2759.4,320.63c0,22.89-12.48,31.21-34.75,31.21h-55.33V290.26h58c20.92,0,32.05,8.86,32.05,30.37m47.57-4.51c0-48.56-26.31-67.29-73.89-67.29h-87c-13.16,0-23.62,11.79-23.62,25.32V484.69h46.9V393.12h49.93c27.67,0,32.73,9,34.41,37.46.34,22.9,1,36.42,2,39.89a35.62,35.62,0,0,0,3.71,14.22H2811c-4.39-3.12-7.08-8.32-7.42-15.61l-2-46.13c-1-15.26-3-27.05-7.08-35-4.72-7.29-12.15-12.84-21.93-16.3,21.93-6.25,34.41-25.67,34.41-55.5M2568,361a19.92,19.92,0,0,1-19.88,19.3h-66.38v61H2599v43.35H2434.85V274.15c0-16.3,7.76-25.32,23.61-25.32H2599v41.43H2481.74V340.4h86.87v20Zm497.25-112h26.11V484.69h-46.89v-215h.12A20.69,20.69,0,0,1,3065.25,249M1708,396.61c0,118.2,187.58,116.69,187.58,0V248.83h-46.9V391.18c0,69.26-93.78,68.37-93.78,0V248.83h-26.11a20.69,20.69,0,0,0-20.67,20.71H1708Zm211,88.08h46.89V327.24l93.78,157.45h46.9V248.83h-46.9V406.27L1965.9,248.83h-26.11a20.68,20.68,0,0,0-20.66,20.71H1919ZM2150.82,249h26.11V484.69H2130v-215h.12A20.69,20.69,0,0,1,2150.82,249m226.83-.12c-12.82,0-19.55,6.07-22.94,17.69L2308.46,425l-60.11-176.2h-48l83.91,235.86h47.12l80-235.86ZM3454.8,484.69v-88.1l82.06-147.76h-39.43c-10.38,0-17.57,4.89-22.14,14.22l-42.83,87.41-47.82-101.63h-58.81l82.07,147.76v88.1Z" transform="translate(-461.26 -183.66)"/></g><path d="M1276.76,726.48a49,49,0,0,1-3.26,18.27,40.07,40.07,0,0,1-9.43,14.17,42.18,42.18,0,0,1-15,9.23,58.34,58.34,0,0,1-20.15,3.26,92.69,92.69,0,0,1-20.29-2.22q-9.93-2.22-15.75-5.68l8.89-24.69a45.9,45.9,0,0,0,11.65,4.84,51.37,51.37,0,0,0,14,2q10,0,15.7-4.84a16.08,16.08,0,0,0,5.73-12.94,15.44,15.44,0,0,0-1.48-6.86,18,18,0,0,0-4.15-5.43,32.93,32.93,0,0,0-6.17-4.35q-3.51-1.92-7.36-3.8-5.92-2.76-12.19-6.42a55.59,55.59,0,0,1-11.41-8.78,43.81,43.81,0,0,1-8.49-12.15,38.29,38.29,0,0,1-3.36-16.69,46.45,46.45,0,0,1,3.26-17.67,39.47,39.47,0,0,1,9.14-13.68,40.39,40.39,0,0,1,14.36-8.79,54.88,54.88,0,0,1,19-3.11,75.76,75.76,0,0,1,19,2.22,46.43,46.43,0,0,1,13.82,5.68l-8.49,23a55,55,0,0,0-10.12-4.39,40.09,40.09,0,0,0-13-2.13q-9.09,0-14.22,4.79a16.27,16.27,0,0,0-5.14,12.49,13.81,13.81,0,0,0,1.63,6.72,21.83,21.83,0,0,0,4.35,5.48,33.62,33.62,0,0,0,6.27,4.54c2.37,1.35,4.83,2.71,7.4,4.1q5.63,3,11.9,6.51a57.22,57.22,0,0,1,11.5,8.6,41.22,41.22,0,0,1,8.6,12A38.46,38.46,0,0,1,1276.76,726.48Z" transform="translate(-461.26 -183.66)" fill="#144b84"/><path d="M1415.4,768.94V696.36q0-8.08-4.64-12.44t-12.54-4.34q-9.69,0-15.6,5.43v83.93H1356V695.08q0-7.22-4.83-11.36t-13.33-4.14a36.81,36.81,0,0,0-14.62,2.56v86.8h-26.26V665.36a101.66,101.66,0,0,1,18-5.58,98.51,98.51,0,0,1,21.18-2.22q12.73,0,20.93,3.4a44.08,44.08,0,0,1,12.84,7.66q4.83-4.05,14.07-7.56a58.94,58.94,0,0,1,21-3.5q17.58,0,27.35,9.67t9.78,26.27v75.44Z" transform="translate(-461.26 -183.66)" fill="#144b84"/><path d="M1547,763.51a48.15,48.15,0,0,1-7.2,3,83.58,83.58,0,0,1-9.43,2.52q-5.19,1.08-10.92,1.73a106.33,106.33,0,0,1-11.65.64q-23.79,0-35.45-9.23t-11.65-26q0-11.05,5.14-18.07A35.33,35.33,0,0,1,1479.48,707a73,73,0,0,1,19.55-5.88,203.77,203.77,0,0,1,23-2.42V693.1q0-8.49-5.28-12t-14.37-3.56a65.45,65.45,0,0,0-15.7,2,80.21,80.21,0,0,0-13.63,4.49l-6.71-18.66a121.65,121.65,0,0,1,17-5.29,92.45,92.45,0,0,1,21.87-2.51q20.14,0,31,9T1547,696.36Zm-25-47.1q-7.3.39-14,1.08a43,43,0,0,0-11.65,2.72,19.7,19.7,0,0,0-8,5.68q-3,3.65-3,9.67,0,7.71,5.67,12t16,4.25a62.13,62.13,0,0,0,8.49-.59,23.34,23.34,0,0,0,6.52-1.68Z" transform="translate(-461.26 -183.66)" fill="#144b84"/><path d="M1621.77,681.35a41.48,41.48,0,0,0-12-1.58,42.24,42.24,0,0,0-7.15.6,29.09,29.09,0,0,0-6,1.58v87h-26.26V665.36a103.69,103.69,0,0,1,19-5.58,118.71,118.71,0,0,1,23.65-2.22,80.52,80.52,0,0,1,13.53,1Z" transform="translate(-461.26 -183.66)" fill="#144b84"/><path d="M1688.82,769.63a46,46,0,0,1-9.18.89q-15.12,0-22.42-8.59t-7.3-25.77v-55.6h-13.34V659.93h13.34V635.64l26.06-7.9v32.19h19.65v20.63H1676v53.82q0,6.61,3.46,9.28a13.45,13.45,0,0,0,8.49,2.67,16.24,16.24,0,0,0,4.3-.55,25.93,25.93,0,0,0,3.4-1.13v22.91A29.94,29.94,0,0,1,1688.82,769.63Z" transform="translate(-461.26 -183.66)" fill="#144b84"/><path d="M1824.89,768.94V706.43h-43.05v62.51h-27.55V622.5h27.55V683h43.05V622.5h27.25V768.94Z" transform="translate(-461.26 -183.66)" fill="#144b84"/><path d="M1966.68,707v4.59a30.71,30.71,0,0,1-.39,4.79L1899,725.89q1.88,12.14,9.62,18t19.31,5.82a68.27,68.27,0,0,0,15.8-1.87,51.42,51.42,0,0,0,13.33-4.94l7.5,20.64a66.08,66.08,0,0,1-16.83,5.68,103.36,103.36,0,0,1-21.78,2.22q-13,0-22.81-4.15a44.8,44.8,0,0,1-16.44-11.75,51.52,51.52,0,0,1-10.12-18.12,73.58,73.58,0,0,1-3.45-23.06,74.41,74.41,0,0,1,3.35-23,53.39,53.39,0,0,1,9.63-18,43,43,0,0,1,15.26-11.71,48.07,48.07,0,0,1,20.34-4.14,49.7,49.7,0,0,1,19.25,3.5,38.25,38.25,0,0,1,14.17,10.07,43.48,43.48,0,0,1,8.69,15.7A66.34,66.34,0,0,1,1966.68,707ZM1941,702.19q0-12.35-5.33-18.52T1921,677.5a21,21,0,0,0-16.84,7.8q-6.57,7.8-7,23.21Z" transform="translate(-461.26 -183.66)" fill="#144b84"/><path d="M2068.19,763.51a47.86,47.86,0,0,1-7.21,3,82.45,82.45,0,0,1-9.43,2.52q-5.18,1.08-10.91,1.73a106.47,106.47,0,0,1-11.65.64q-23.79,0-35.45-9.23t-11.65-26q0-11.05,5.14-18.07A35.33,35.33,0,0,1,2000.65,707a73,73,0,0,1,19.55-5.88,203.53,203.53,0,0,1,23-2.42V693.1q0-8.49-5.28-12t-14.37-3.56a65.45,65.45,0,0,0-15.7,2,80.21,80.21,0,0,0-13.63,4.49l-6.71-18.66a121.65,121.65,0,0,1,17-5.29,92.45,92.45,0,0,1,21.87-2.51q20.14,0,31,9t10.81,29.82Zm-25-47.1q-7.31.39-14,1.08a42.9,42.9,0,0,0-11.65,2.72,19.7,19.7,0,0,0-8,5.68q-3,3.65-3,9.67,0,7.71,5.67,12t16,4.25a62.13,62.13,0,0,0,8.49-.59,23.34,23.34,0,0,0,6.52-1.68Z" transform="translate(-461.26 -183.66)" fill="#144b84"/><path d="M2091.79,768.94V610.16h26.46V768.94Z" transform="translate(-461.26 -183.66)" fill="#144b84"/><path d="M2188.36,769.63a45.82,45.82,0,0,1-9.18.89q-15.1,0-22.41-8.59t-7.31-25.77v-55.6h-13.33V659.93h13.33V635.64l26.07-7.9v32.19h19.65v20.63h-19.65v53.82q0,6.61,3.45,9.28a13.49,13.49,0,0,0,8.49,2.67,16.19,16.19,0,0,0,4.3-.55,26.64,26.64,0,0,0,3.41-1.13v22.91A30.21,30.21,0,0,1,2188.36,769.63Z" transform="translate(-461.26 -183.66)" fill="#144b84"/><path d="M2274.27,768.94V697.75q0-9.09-4.94-13.53t-14-4.45a31.34,31.34,0,0,0-8.1,1.09,26.5,26.5,0,0,0-7.1,3v85.12h-26.27V610.16h26.27v53a52,52,0,0,1,22-5q18.66,0,28.78,9.38T2301,694.88v74.06Z" transform="translate(-461.26 -183.66)" fill="#144b84"/><path d="M2434,769.19a64.81,64.81,0,0,1-17.63,2.22,51.45,51.45,0,0,1-21.67-4.69,49.28,49.28,0,0,1-17.82-14.07q-7.62-9.39-11.95-23.55t-4.35-33.33q0-19,4.35-33.33t11.95-23.65a48.82,48.82,0,0,1,17.82-14,51.86,51.86,0,0,1,21.67-4.64,65.51,65.51,0,0,1,17.38,2.22,41.23,41.23,0,0,1,12.94,5.68l-8.5,22.81a26.1,26.1,0,0,0-7.75-4.05,32.09,32.09,0,0,0-10.81-1.77q-13.53,0-22.22,12.73t-8.69,37.82q0,25.08,8.69,37.72t22.22,12.64a32.59,32.59,0,0,0,10.81-1.73,25.21,25.21,0,0,0,7.75-4l8.5,23.3A41.19,41.19,0,0,1,2434,769.19Z" transform="translate(-461.26 -183.66)" fill="#144b84"/><path d="M2555,707v4.59a29.57,29.57,0,0,1-.4,4.79l-67.34,9.48q1.88,12.14,9.63,18t19.3,5.82a68.2,68.2,0,0,0,15.8-1.87,51.28,51.28,0,0,0,13.33-4.94l7.51,20.64a66.16,66.16,0,0,1-16.84,5.68,103.33,103.33,0,0,1-21.77,2.22q-13,0-22.81-4.15A44.64,44.64,0,0,1,2475,755.51a51.54,51.54,0,0,1-10.13-18.12,73.58,73.58,0,0,1-3.45-23.06,74.4,74.4,0,0,1,3.36-23,53.2,53.2,0,0,1,9.62-18,43,43,0,0,1,15.26-11.71,48.07,48.07,0,0,1,20.34-4.14,49.78,49.78,0,0,1,19.26,3.5,38.41,38.41,0,0,1,14.17,10.07,43.46,43.46,0,0,1,8.68,15.7A66,66,0,0,1,2555,707Zm-25.68-4.84q0-12.35-5.33-18.52t-14.71-6.17a21,21,0,0,0-16.84,7.8q-6.55,7.8-7,23.21Z" transform="translate(-461.26 -183.66)" fill="#144b84"/><path d="M2635.47,768.94V697.15q0-8.29-4.64-12.93t-13.72-4.64a48.2,48.2,0,0,0-8.89.79,43.49,43.49,0,0,0-6.91,1.77v86.8H2575V665.36a113.42,113.42,0,0,1,18.52-5.58,109.52,109.52,0,0,1,23.15-2.22q23.4,0,34.46,9.48t11.06,27.25v74.65Z" transform="translate(-461.26 -183.66)" fill="#144b84"/><path d="M2731.65,769.63a46,46,0,0,1-9.18.89q-15.1,0-22.42-8.59t-7.3-25.77v-55.6h-13.33V659.93h13.33V635.64l26.06-7.9v32.19h19.65v20.63h-19.65v53.82q0,6.61,3.46,9.28a13.45,13.45,0,0,0,8.49,2.67,16.19,16.19,0,0,0,4.3-.55,25.93,25.93,0,0,0,3.4-1.13v22.91A29.94,29.94,0,0,1,2731.65,769.63Z" transform="translate(-461.26 -183.66)" fill="#144b84"/><path d="M2846.88,707v4.59a30.71,30.71,0,0,1-.39,4.79l-67.34,9.48q1.88,12.14,9.62,18t19.31,5.82a68.27,68.27,0,0,0,15.8-1.87,51.42,51.42,0,0,0,13.33-4.94l7.5,20.64a66.08,66.08,0,0,1-16.83,5.68,103.36,103.36,0,0,1-21.78,2.22q-13,0-22.81-4.15a44.8,44.8,0,0,1-16.44-11.75,51.68,51.68,0,0,1-10.12-18.12,73.58,73.58,0,0,1-3.45-23.06,74.41,74.41,0,0,1,3.35-23,53.39,53.39,0,0,1,9.63-18,43,43,0,0,1,15.26-11.71,48.07,48.07,0,0,1,20.34-4.14,49.7,49.7,0,0,1,19.25,3.5,38.25,38.25,0,0,1,14.17,10.07,43.48,43.48,0,0,1,8.69,15.7A66.34,66.34,0,0,1,2846.88,707Zm-25.67-4.84q0-12.35-5.33-18.52t-14.71-6.17a21,21,0,0,0-16.84,7.8q-6.57,7.8-7,23.21Z" transform="translate(-461.26 -183.66)" fill="#144b84"/><path d="M2918.28,681.35a41.53,41.53,0,0,0-12-1.58,42.27,42.27,0,0,0-7.16.6,28.81,28.81,0,0,0-6,1.58v87h-26.27V665.36a103.81,103.81,0,0,1,19-5.58,118.56,118.56,0,0,1,23.65-2.22,80.48,80.48,0,0,1,13.52,1Z" transform="translate(-461.26 -183.66)" fill="#144b84"/></g></svg>